# This file uses centimeters as units for non-parametric coordinates.

mtllib ExitSign_HiPoly.mtl
g default
v -1.000000 0.049995 -0.201626
v -0.950005 0.000000 -0.201626
v -0.985357 0.014643 -0.201626
v -1.000000 0.049995 0.000000
v -0.985357 0.014643 0.000000
v -0.950005 0.000000 0.000000
v 1.000000 0.049995 -0.201626
v 0.985357 0.014643 -0.201626
v 0.950005 0.000000 -0.201626
v 1.000000 0.049995 0.000000
v 0.950005 0.000000 0.000000
v 0.985357 0.014643 0.000000
v -0.985357 0.985357 0.000000
v -1.000000 0.950005 0.000000
v -0.950005 1.000000 0.000000
v -1.000000 0.950005 -0.201626
v -0.985357 0.985357 -0.201626
v -0.950005 1.000000 -0.201626
v 0.985357 0.985357 0.000000
v 0.950005 1.000000 0.000000
v 1.000000 0.950005 0.000000
v 1.000000 0.950005 -0.201626
v 0.950005 1.000000 -0.201626
v 0.985357 0.985357 -0.201626
vt 0.024998 0.250000
vt 1.000000 0.274998
vt 0.975003 0.750000
vt 0.000000 0.725002
vt 0.024998 0.750000
vt 1.000000 0.725002
vt 0.975003 0.250000
vt 0.000000 0.274998
vt 0.975003 0.033220
vt 0.024998 0.134033
vt 0.489319 0.884298
vt 0.039314 0.985111
vt 0.975002 0.134033
vt 0.024998 0.033220
vt 0.039314 0.884298
vt 0.489319 0.985111
vt 0.039314 0.884298
vt 0.021638 0.884298
vt 0.021638 0.985111
vt 0.992678 0.033220
vt 0.975003 0.134033
vt 0.992678 0.134033
vt 0.024998 0.033220
vt 0.007322 0.033220
vt 0.007322 0.134033
vt 0.021638 0.884298
vt 0.039314 0.985111
vt 0.021638 0.985111
vt 0.489319 0.985111
vt 0.506995 0.985111
vt 0.506995 0.884298
vt 0.992678 0.134033
vt 0.975003 0.033220
vt 0.992678 0.033220
vt 0.024998 0.134033
vt 0.007322 0.134033
vt 0.007322 0.033220
vt 0.506995 0.985111
vt 0.489319 0.884298
vt 0.506995 0.884298
vt 0.024997 0.250000
vt 0.007322 0.257322
vt 0.000000 0.274998
vt 0.007322 0.257322
vt 1.000000 0.274998
vt 0.992678 0.257322
vt 0.975003 0.250000
vt 0.992678 0.257322
vt 0.007322 0.742678
vt 0.024997 0.750000
vt 0.000000 0.725002
vt 0.007322 0.742678
vt 0.992678 0.742678
vt 1.000000 0.725002
vt 0.975003 0.750000
vt 0.992678 0.742678
vn -0.007566 -0.999971 0.000000
vn -0.007566 -0.999971 0.000000
vn 0.007566 -0.999971 0.000000
vn 0.007566 -0.999971 0.000000
vn -0.007566 0.999971 0.000000
vn -0.007566 0.999971 0.000000
vn 0.007566 0.999971 0.000000
vn 0.007566 0.999971 0.000000
vn 0.999878 -0.015653 0.000000
vn 0.999878 -0.015653 0.000000
vn 0.999878 0.015653 0.000000
vn 0.999878 0.015653 0.000000
vn -0.999878 0.015653 0.000000
vn -0.999878 0.015653 0.000000
vn -0.999878 -0.015653 0.000000
vn -0.999878 -0.015653 0.000000
vn 0.000000 0.000000 1.000000
vn 0.000000 0.000000 1.000000
vn 0.000000 0.000000 1.000000
vn 0.000000 0.000000 1.000000
vn 0.000000 0.000000 1.000000
vn 0.000000 0.000000 1.000000
vn -0.000000 0.000000 1.000000
vn -0.000000 0.000000 1.000000
vn 0.000000 0.000000 -1.000000
vn 0.000000 0.000000 -1.000000
vn 0.000000 0.000000 -1.000000
vn 0.000000 0.000000 -1.000000
vn 0.000000 0.000000 -1.000000
vn 0.000000 0.000000 -1.000000
vn -0.000000 0.000000 -1.000000
vn -0.000000 0.000000 -1.000000
vn -0.923880 -0.382684 0.000000
vn -0.923880 -0.382684 0.000000
vn -0.382684 -0.923880 0.000000
vn -0.382684 -0.923880 0.000000
vn 0.382684 -0.923880 0.000000
vn 0.382684 -0.923880 0.000000
vn 0.923880 -0.382684 0.000000
vn 0.923880 -0.382684 0.000000
vn -0.923880 0.382684 0.000000
vn -0.923880 0.382684 0.000000
vn -0.382684 0.923880 0.000000
vn -0.382684 0.923880 0.000000
vn 0.382684 0.923880 0.000000
vn 0.382684 0.923880 0.000000
vn 0.923880 0.382684 0.000000
vn 0.923880 0.382684 0.000000
vn -0.000000 0.000000 -1.000000
vn 0.000000 0.000000 1.000000
vn 0.000000 0.000000 -1.000000
vn 0.000000 0.000000 1.000000
vn -0.000000 0.000000 1.000000
vn 0.000000 0.000000 -1.000000
vn 0.000000 0.000000 1.000000
vn 0.000000 0.000000 -1.000000
s 1
g pCube1
usemtl lambert2SG
f 6/21/1 2/9/2 9/23/3 11/10/4
s 2
f 18/33/5 15/13/6 20/35/7 23/14/8
s 3
f 10/27/9 7/15/10 22/39/11 21/16/12
s 4
f 14/29/13 16/11/14 1/17/15 4/12/16
s 5
f 4/43/17 6/1/18 11/47/19 10/2/20 21/54/21 20/3/22 15/50/23 14/4/24
s 6
f 16/51/25 18/5/26 23/55/27 22/6/28 7/45/29 9/7/30 2/41/31 1/8/32
s 4
f 1/17/15 3/18/33 5/19/34 4/12/16
s 1
f 3/20/35 2/9/2 6/21/1 5/22/36
f 9/23/3 8/24/37 12/25/38 11/10/4
s 3
f 8/26/39 7/15/10 10/27/9 12/28/40
s 4
f 14/29/13 13/30/41 17/31/42 16/11/14
s 2
f 13/32/43 15/13/6 18/33/5 17/34/44
f 20/35/7 19/36/45 24/37/46 23/14/8
s 3
f 19/38/47 21/16/12 22/39/11 24/40/48
s 6
f 1/8/32 2/41/31 3/42/49
s 5
f 4/43/17 5/44/50 6/1/18
s 6
f 7/45/29 8/46/51 9/7/30
s 5
f 10/2/20 11/47/19 12/48/52
f 13/49/53 14/4/24 15/50/23
s 6
f 16/51/25 17/52/54 18/5/26
s 5
f 19/53/55 20/3/22 21/54/21
s 6
f 22/6/28 23/55/27 24/56/56
